<?xml version="1.0" encoding="UTF-8"?>
<!DOCTYPE svg PUBLIC "-//W3C//DTD SVG 1.1//EN" "http://www.w3.org/Graphics/SVG/1.1/DTD/svg11.dtd">
<svg xmlns="http://www.w3.org/2000/svg" version="1.1" width="574px" height="580px" style="shape-rendering:geometricPrecision; text-rendering:geometricPrecision; image-rendering:optimizeQuality; fill-rule:evenodd; clip-rule:evenodd" xmlns:xlink="http://www.w3.org/1999/xlink">
<g><path style="opacity:1" fill="#333435" d="M -0.5,-0.5 C 190.833,-0.5 382.167,-0.5 573.5,-0.5C 573.5,0.166667 573.5,0.833333 573.5,1.5C 383.833,1.5 194.167,1.5 4.5,1.5C 2.83333,1.5 1.16667,1.5 -0.5,1.5C -0.5,0.833333 -0.5,0.166667 -0.5,-0.5 Z"/></g>
<g><path style="opacity:1" fill="#083d77" d="M -0.5,1.5 C 1.16667,1.5 2.83333,1.5 4.5,1.5C 4.5,194.167 4.5,386.833 4.5,579.5C 2.83333,579.5 1.16667,579.5 -0.5,579.5C -0.5,386.833 -0.5,194.167 -0.5,1.5 Z"/></g>
<g><path style="opacity:1" fill="#083d79" d="M 4.5,1.5 C 194.167,1.5 383.833,1.5 573.5,1.5C 573.5,194.167 573.5,386.833 573.5,579.5C 383.833,579.5 194.167,579.5 4.5,579.5C 4.5,386.833 4.5,194.167 4.5,1.5 Z"/></g>
<g><path style="opacity:1" fill="#244970" d="M 339.5,164.5 C 336.831,162.001 333.998,159.668 331,157.5C 328.6,159.729 326.433,162.063 324.5,164.5C 326.397,155.611 330.73,154.278 337.5,160.5C 338.705,161.577 339.372,162.91 339.5,164.5 Z"/></g>
<g><path style="opacity:1" fill="#fafcfb" d="M 258.5,158.5 C 261.213,160.214 263.213,162.547 264.5,165.5C 265.787,168.406 266.787,171.406 267.5,174.5C 272.327,173.848 274.16,175.848 273,180.5C 270.2,181.125 267.366,181.792 264.5,182.5C 263.478,183.354 262.645,184.354 262,185.5C 261.667,185.167 261.333,184.833 261,184.5C 259.56,187.128 258.393,189.795 257.5,192.5C 253.833,195.167 250.167,197.833 246.5,200.5C 244.637,203.569 243.303,206.902 242.5,210.5C 241.075,211.922 240.075,213.589 239.5,215.5C 235.123,219.268 231.456,223.601 228.5,228.5C 222.113,234.554 216.446,241.221 211.5,248.5C 207.464,252.534 203.798,256.868 200.5,261.5C 194.824,267.177 189.491,273.177 184.5,279.5C 174.835,279.878 165.169,280.211 155.5,280.5C 154.62,278.389 154.62,276.389 155.5,274.5C 158.833,270.167 162.167,265.833 165.5,261.5C 166.167,261.167 166.833,260.833 167.5,260.5C 168.847,259.829 170.014,259.829 171,260.5C 173.516,256.492 176.682,252.992 180.5,250C 179.72,248.927 179.887,247.76 181,246.5C 184.297,243.582 187.797,240.916 191.5,238.5C 193.371,235.766 194.371,232.766 194.5,229.5C 199.5,223.5 204.5,217.5 209.5,211.5C 215.833,204.167 222.167,196.833 228.5,189.5C 234.804,182.192 241.138,174.859 247.5,167.5C 250.435,164.062 253.601,160.729 257,157.5C 257.383,158.056 257.883,158.389 258.5,158.5 Z"/></g>
<g><path style="opacity:1" fill="#f9fbfb" d="M 342.5,182.5 C 339.167,183.833 336.833,186.167 335.5,189.5C 331.267,193.643 327.267,197.977 323.5,202.5C 322.022,202.238 320.689,202.571 319.5,203.5C 318.868,205.965 317.368,207.631 315,208.5C 314.517,209.448 314.351,210.448 314.5,211.5C 312.856,211.286 311.356,211.62 310,212.5C 308.406,218.143 305.239,222.643 300.5,226C 301.34,227.666 300.84,227.833 299,226.5C 298.383,227.449 298.549,228.282 299.5,229C 296.629,230.89 293.962,233.723 291.5,237.5C 290.571,238.689 290.238,240.022 290.5,241.5C 286.167,246.833 281.833,252.167 277.5,257.5C 276.833,257.5 276.5,257.833 276.5,258.5C 271.538,264.797 266.205,270.797 260.5,276.5C 257.821,276.525 256.488,277.858 256.5,280.5C 247.161,280.666 237.827,280.5 228.5,280C 227.587,278.586 227.587,277.086 228.5,275.5C 240.833,260.833 253.167,246.167 265.5,231.5C 282.538,213.131 299.204,194.464 315.5,175.5C 318.95,176.244 320.616,174.91 320.5,171.5C 322.824,171.338 324.491,170.172 325.5,168C 326.793,167.51 328.127,167.343 329.5,167.5C 328.986,165.488 328.82,163.488 329,161.5C 331.658,160.306 332.824,161.306 332.5,164.5C 336.753,164.812 339.086,167.145 339.5,171.5C 341.707,172.635 344.04,173.301 346.5,173.5C 346.421,174.93 346.754,176.264 347.5,177.5C 354.225,180.451 353.725,182.451 346,183.5C 344.862,183.011 343.695,182.678 342.5,182.5 Z"/></g>
<g><path style="opacity:1" fill="#183f68" d="M 258.5,158.5 C 263.929,160.847 268.595,164.347 272.5,169C 273.766,169.309 274.933,169.809 276,170.5C 277.05,175.322 279.884,178.322 284.5,179.5C 285.167,181.5 285.833,183.5 286.5,185.5C 279.466,178.464 272.133,171.797 264.5,165.5C 263.213,162.547 261.213,160.214 258.5,158.5 Z"/></g>
<g><path style="opacity:1" fill="#16406d" d="M 247.5,167.5 C 241.138,174.859 234.804,182.192 228.5,189.5C 229.339,186.505 230.673,183.672 232.5,181C 231.968,178.98 230.635,178.147 228.5,178.5C 228.5,177.5 228.5,176.5 228.5,175.5C 231.157,175.162 233.49,175.829 235.5,177.5C 236.167,177.167 236.833,176.833 237.5,176.5C 238.221,174.314 238.887,172.147 239.5,170C 242.096,168.864 244.763,168.031 247.5,167.5 Z"/></g>
<g><path style="opacity:1" fill="#e8f1f5" d="M 264.5,165.5 C 272.133,171.797 279.466,178.464 286.5,185.5C 284.929,188.744 282.595,191.411 279.5,193.5C 277.147,191.477 274.814,189.477 272.5,187.5C 271.188,185.521 269.521,183.855 267.5,182.5C 263.442,186.554 259.775,190.887 256.5,195.5C 251.833,200.5 247.167,205.5 242.5,210.5C 243.303,206.902 244.637,203.569 246.5,200.5C 250.167,197.833 253.833,195.167 257.5,192.5C 258.393,189.795 259.56,187.128 261,184.5C 261.333,184.833 261.667,185.167 262,185.5C 262.645,184.354 263.478,183.354 264.5,182.5C 267.366,181.792 270.2,181.125 273,180.5C 274.16,175.848 272.327,173.848 267.5,174.5C 266.787,171.406 265.787,168.406 264.5,165.5 Z"/></g>
<g><path style="opacity:1" fill="#20446e" d="M 272.5,187.5 C 269.873,186.908 267.206,186.575 264.5,186.5C 264.64,192.026 261.973,195.026 256.5,195.5C 259.775,190.887 263.442,186.554 267.5,182.5C 269.521,183.855 271.188,185.521 272.5,187.5 Z"/></g>
<g><path style="opacity:1" fill="#7c9ab0" d="M 160.5,192.5 C 171.654,191.505 182.988,191.172 194.5,191.5C 194.5,192.5 194.5,193.5 194.5,194.5C 194.818,199.032 194.485,203.366 193.5,207.5C 193.5,202.5 193.5,197.5 193.5,192.5C 182.833,192.5 172.167,192.5 161.5,192.5C 161.167,192.5 160.833,192.5 160.5,192.5 Z"/></g>
<g><path style="opacity:1" fill="#1e446d" d="M 315.5,174.5 C 315.5,174.833 315.5,175.167 315.5,175.5C 299.204,194.464 282.538,213.131 265.5,231.5C 264.974,228.192 266.307,226.026 269.5,225C 269.167,224.667 268.833,224.333 268.5,224C 275.312,219.866 279.812,214.033 282,206.5C 283,205.167 284,205.167 285,206.5C 287.267,204.551 288.934,202.218 290,199.5C 292,197.833 294,196.167 296,194.5C 296.483,193.552 296.649,192.552 296.5,191.5C 297.5,191.5 298.5,191.5 299.5,191.5C 301.129,187.476 303.296,183.81 306,180.5C 308.5,179.333 310.333,177.5 311.5,175C 312.793,174.51 314.127,174.343 315.5,174.5 Z"/></g>
<g><path style="opacity:1" fill="#fbfdfc" d="M 161.5,192.5 C 172.167,192.5 182.833,192.5 193.5,192.5C 193.5,197.5 193.5,202.5 193.5,207.5C 190.453,210.545 187.787,213.878 185.5,217.5C 179.599,223.645 173.932,229.978 168.5,236.5C 167.5,236.5 166.5,236.5 165.5,236.5C 165.271,238.433 164.438,240.1 163,241.5C 162.667,240.833 162.333,240.167 162,239.5C 161.5,223.837 161.333,208.17 161.5,192.5 Z"/></g>
<g><path style="opacity:1" fill="#0f3f73" d="M 228.5,189.5 C 222.167,196.833 215.833,204.167 209.5,211.5C 208.5,211.5 207.5,211.5 206.5,211.5C 207.803,209.409 207.303,207.743 205,206.5C 203.523,207.444 202.523,208.777 202,210.5C 199.75,206.709 197.25,206.709 194.5,210.5C 193.643,211.736 192.977,213.069 192.5,214.5C 191.349,215.731 190.183,215.731 189,214.5C 188.578,216.426 187.411,217.426 185.5,217.5C 187.787,213.878 190.453,210.545 193.5,207.5C 194.485,203.366 194.818,199.032 194.5,194.5C 195.477,197.287 195.81,200.287 195.5,203.5C 196.675,203.719 197.675,203.386 198.5,202.5C 198.038,198.83 197.705,195.164 197.5,191.5C 197.453,190 198.119,189 199.5,188.5C 200.724,190.828 200.724,193.161 199.5,195.5C 200.881,197.635 201.881,199.968 202.5,202.5C 204.413,203.373 206.247,204.373 208,205.5C 209.885,203.98 212.051,202.98 214.5,202.5C 215.308,198.025 217.974,195.692 222.5,195.5C 222.833,193.5 223.167,191.5 223.5,189.5C 225.167,189.5 226.833,189.5 228.5,189.5 Z"/></g>
<g><path style="opacity:1" fill="#597494" d="M 159.5,192.5 C 159.833,192.5 160.167,192.5 160.5,192.5C 160.17,210.341 160.503,228.008 161.5,245.5C 161.44,246.043 161.107,246.376 160.5,246.5C 159.5,228.512 159.167,210.512 159.5,192.5 Z"/></g>
<g><path style="opacity:1" fill="#d2e2ee" d="M 160.5,192.5 C 160.833,192.5 161.167,192.5 161.5,192.5C 161.333,208.17 161.5,223.837 162,239.5C 162.333,240.167 162.667,240.833 163,241.5C 164.438,240.1 165.271,238.433 165.5,236.5C 166.5,236.5 167.5,236.5 168.5,236.5C 166.549,239.786 164.215,242.786 161.5,245.5C 160.503,228.008 160.17,210.341 160.5,192.5 Z"/></g>
<g><path style="opacity:1" fill="#194273" d="M 335.5,189.5 C 335.553,193.138 333.887,195.138 330.5,195.5C 330.5,197.167 330.5,198.833 330.5,200.5C 340.84,201.332 341.007,202.998 331,205.5C 330.05,204.978 329.216,204.311 328.5,203.5C 326.929,204.309 325.262,204.643 323.5,204.5C 324.498,210.167 322.164,212.501 316.5,211.5C 318.592,208.319 320.925,205.319 323.5,202.5C 327.267,197.977 331.267,193.643 335.5,189.5 Z"/></g>
<g><path style="opacity:1" fill="#21446b" d="M 360.5,201.5 C 367.93,209.386 375.597,217.053 383.5,224.5C 378.79,222.629 375.123,219.462 372.5,215C 369.829,212.553 366.829,210.553 363.5,209C 362.358,206.55 361.358,204.05 360.5,201.5 Z"/></g>
<g><path style="opacity:1" fill="#1a3f66" d="M 366.5,191.5 C 367.552,191.351 368.552,191.517 369.5,192C 371.295,195.124 373.962,197.124 377.5,198C 381.874,204.251 387.041,209.751 393,214.5C 393.112,217.447 394.612,218.78 397.5,218.5C 397.351,219.552 397.517,220.552 398,221.5C 400.273,224.945 403.44,226.945 407.5,227.5C 407.878,229.921 408.545,232.254 409.5,234.5C 394.671,220.868 380.338,206.534 366.5,191.5 Z"/></g>
<g><path style="opacity:1" fill="#21466c" d="M 206.5,211.5 C 207.5,211.5 208.5,211.5 209.5,211.5C 204.5,217.5 199.5,223.5 194.5,229.5C 192.139,231.194 190.139,233.194 188.5,235.5C 188.838,233.146 189.338,230.813 190,228.5C 191.509,227.91 193.009,227.244 194.5,226.5C 194.678,223.196 196.344,221.529 199.5,221.5C 201.946,218.334 204.279,215.001 206.5,211.5 Z"/></g>
<g><path style="opacity:1" fill="#063d79" d="M 206.5,211.5 C 204.279,215.001 201.946,218.334 199.5,221.5C 196.344,221.529 194.678,223.196 194.5,226.5C 193.009,227.244 191.509,227.91 190,228.5C 189.338,230.813 188.838,233.146 188.5,235.5C 188.5,236.167 188.167,236.5 187.5,236.5C 186.5,236.5 185.5,236.5 184.5,236.5C 184.072,239.246 182.406,240.913 179.5,241.5C 177.871,245.629 175.037,248.629 171,250.5C 170.229,247.654 169.395,244.82 168.5,242C 168.667,240.833 168.833,239.667 169,238.5C 174.441,236.849 177.608,233.182 178.5,227.5C 180.576,225.712 182.743,224.046 185,222.5C 185.219,223.938 185.719,225.271 186.5,226.5C 186.833,225.833 187.167,225.167 187.5,224.5C 186.063,222.423 185.396,220.09 185.5,217.5C 187.411,217.426 188.578,216.426 189,214.5C 190.183,215.731 191.349,215.731 192.5,214.5C 192.977,213.069 193.643,211.736 194.5,210.5C 197.25,206.709 199.75,206.709 202,210.5C 202.523,208.777 203.523,207.444 205,206.5C 207.303,207.743 207.803,209.409 206.5,211.5 Z"/></g>
<g><path style="opacity:1" fill="#eff4f5" d="M 339.5,164.5 C 348.221,173.887 357.221,182.887 366.5,191.5C 380.338,206.534 394.671,220.868 409.5,234.5C 409.833,235.5 410.5,236.167 411.5,236.5C 415.478,240.813 419.478,245.146 423.5,249.5C 418.88,250.493 414.214,250.827 409.5,250.5C 407.194,248.861 405.194,246.861 403.5,244.5C 397.221,237.554 390.554,230.887 383.5,224.5C 375.597,217.053 367.93,209.386 360.5,201.5C 354.444,195.114 348.444,188.781 342.5,182.5C 343.695,182.678 344.862,183.011 346,183.5C 353.725,182.451 354.225,180.451 347.5,177.5C 346.754,176.264 346.421,174.93 346.5,173.5C 344.04,173.301 341.707,172.635 339.5,171.5C 339.086,167.145 336.753,164.812 332.5,164.5C 332.824,161.306 331.658,160.306 329,161.5C 328.82,163.488 328.986,165.488 329.5,167.5C 328.127,167.343 326.793,167.51 325.5,168C 324.491,170.172 322.824,171.338 320.5,171.5C 320.616,174.91 318.95,176.244 315.5,175.5C 315.5,175.167 315.5,174.833 315.5,174.5C 318.471,171.192 321.471,167.859 324.5,164.5C 326.433,162.063 328.6,159.729 331,157.5C 333.998,159.668 336.831,162.001 339.5,164.5 Z"/></g>
<g><path style="opacity:1" fill="#2c4c72" d="M 239.5,215.5 C 237.635,221.365 233.968,225.698 228.5,228.5C 231.456,223.601 235.123,219.268 239.5,215.5 Z"/></g>
<g><path style="opacity:1" fill="#e1eef5" d="M 323.5,202.5 C 320.925,205.319 318.592,208.319 316.5,211.5C 310.529,218.475 304.529,225.475 298.5,232.5C 298.5,232.833 298.5,233.167 298.5,233.5C 295.473,235.86 292.806,238.527 290.5,241.5C 290.238,240.022 290.571,238.689 291.5,237.5C 293.962,233.723 296.629,230.89 299.5,229C 298.549,228.282 298.383,227.449 299,226.5C 300.84,227.833 301.34,227.666 300.5,226C 305.239,222.643 308.406,218.143 310,212.5C 311.356,211.62 312.856,211.286 314.5,211.5C 314.351,210.448 314.517,209.448 315,208.5C 317.368,207.631 318.868,205.965 319.5,203.5C 320.689,202.571 322.022,202.238 323.5,202.5 Z"/></g>
<g><path style="opacity:1" fill="#1e4371" d="M 316.5,211.5 C 316.649,212.552 316.483,213.552 316,214.5C 312.489,218.86 309.489,223.527 307,228.5C 304.074,229.714 301.241,231.047 298.5,232.5C 304.529,225.475 310.529,218.475 316.5,211.5 Z"/></g>
<g><path style="opacity:1" fill="#25456e" d="M 383.5,224.5 C 390.554,230.887 397.221,237.554 403.5,244.5C 401.5,244.5 399.5,244.5 397.5,244.5C 397.502,242.169 396.669,240.169 395,238.5C 391.292,235.157 387.625,231.824 384,228.5C 383.51,227.207 383.343,225.873 383.5,224.5 Z"/></g>
<g><path style="opacity:1" fill="#1e4369" d="M 411.5,236.5 C 412.833,236.5 414.167,236.5 415.5,236.5C 415.33,237.822 415.663,238.989 416.5,240C 418.676,240.163 420.509,240.996 422,242.5C 422.77,245.48 423.77,248.147 425,250.5C 424.667,251.167 424.333,251.833 424,252.5C 419.066,251.856 414.233,251.19 409.5,250.5C 414.214,250.827 418.88,250.493 423.5,249.5C 419.478,245.146 415.478,240.813 411.5,236.5 Z"/></g>
<g><path style="opacity:1" fill="#123e71" d="M 159.5,192.5 C 159.167,210.512 159.5,228.512 160.5,246.5C 161.107,246.376 161.44,246.043 161.5,245.5C 164.215,242.786 166.549,239.786 168.5,236.5C 173.932,229.978 179.599,223.645 185.5,217.5C 185.396,220.09 186.063,222.423 187.5,224.5C 187.167,225.167 186.833,225.833 186.5,226.5C 185.719,225.271 185.219,223.938 185,222.5C 182.743,224.046 180.576,225.712 178.5,227.5C 177.608,233.182 174.441,236.849 169,238.5C 168.833,239.667 168.667,240.833 168.5,242C 169.395,244.82 170.229,247.654 171,250.5C 175.037,248.629 177.871,245.629 179.5,241.5C 182.406,240.913 184.072,239.246 184.5,236.5C 185.5,236.5 186.5,236.5 187.5,236.5C 180.486,244.183 173.82,252.183 167.5,260.5C 166.833,260.833 166.167,261.167 165.5,261.5C 165.878,257.346 167.044,253.68 169,250.5C 167.184,251.329 165.351,252.163 163.5,253C 161.765,256.084 159.765,258.917 157.5,261.5C 156.486,256.833 155.986,252.166 156,247.5C 156.725,249.158 157.892,249.658 159.5,249C 158.814,230.882 158.148,212.716 157.5,194.5C 157.747,193.287 158.414,192.62 159.5,192.5 Z"/></g>
<g><path style="opacity:1" fill="#22466b" d="M 228.5,228.5 C 227.667,231.357 226.334,234.023 224.5,236.5C 220.996,238.756 218.329,241.756 216.5,245.5C 215.06,246.952 213.394,247.952 211.5,248.5C 216.446,241.221 222.113,234.554 228.5,228.5 Z"/></g>
<g><path style="opacity:1" fill="#1c436d" d="M 298.5,233.5 C 297.756,236.937 295.756,239.603 292.5,241.5C 291.691,243.071 291.357,244.738 291.5,246.5C 290.178,246.33 289.011,246.663 288,247.5C 285.525,250.362 283.358,253.529 281.5,257C 280.207,257.49 278.873,257.657 277.5,257.5C 281.833,252.167 286.167,246.833 290.5,241.5C 292.806,238.527 295.473,235.86 298.5,233.5 Z"/></g>
<g><path style="opacity:1" fill="#deecf3" d="M 194.5,229.5 C 194.371,232.766 193.371,235.766 191.5,238.5C 187.797,240.916 184.297,243.582 181,246.5C 179.887,247.76 179.72,248.927 180.5,250C 176.682,252.992 173.516,256.492 171,260.5C 170.014,259.829 168.847,259.829 167.5,260.5C 173.82,252.183 180.486,244.183 187.5,236.5C 188.167,236.5 188.5,236.167 188.5,235.5C 190.139,233.194 192.139,231.194 194.5,229.5 Z"/></g>
<g><path style="opacity:1" fill="#1c426b" d="M 165.5,261.5 C 162.167,265.833 158.833,270.167 155.5,274.5C 152.998,276.17 150.998,278.336 149.5,281C 160.833,281.667 172.167,281.667 183.5,281C 184.056,280.617 184.389,280.117 184.5,279.5C 189.491,273.177 194.824,267.177 200.5,261.5C 198.952,264.418 197.452,267.418 196,270.5C 192.393,274.197 188.893,278.031 185.5,282C 174.833,282.333 164.167,282.667 153.5,283C 150.947,284.656 148.281,284.823 145.5,283.5C 145.972,280.185 147.805,277.851 151,276.5C 154.5,270.128 159.333,265.128 165.5,261.5 Z"/></g>
<g><path style="opacity:1" fill="#dbeff8" d="M 155.5,274.5 C 154.62,276.389 154.62,278.389 155.5,280.5C 165.169,280.211 174.835,279.878 184.5,279.5C 184.389,280.117 184.056,280.617 183.5,281C 172.167,281.667 160.833,281.667 149.5,281C 150.998,278.336 152.998,276.17 155.5,274.5 Z"/></g>
<g><path style="opacity:1" fill="#1c3f69" d="M 276.5,258.5 C 276.785,260.288 276.452,261.955 275.5,263.5C 273.239,264.682 271.405,266.349 270,268.5C 267.167,272.667 264.333,276.833 261.5,281C 249.926,281.8 238.426,282.967 227,284.5C 220.872,283.075 220.039,280.242 224.5,276C 225.448,275.517 226.448,275.351 227.5,275.5C 225.998,277.175 224.665,279.008 223.5,281C 234.833,281.667 246.167,281.667 257.5,281C 258.386,279.385 259.386,277.885 260.5,276.5C 266.205,270.797 271.538,264.797 276.5,258.5 Z"/></g>
<g><path style="opacity:1" fill="#d4edf9" d="M 227.5,275.5 C 227.833,275.5 228.167,275.5 228.5,275.5C 227.587,277.086 227.587,278.586 228.5,280C 237.827,280.5 247.161,280.666 256.5,280.5C 256.488,277.858 257.821,276.525 260.5,276.5C 259.386,277.885 258.386,279.385 257.5,281C 246.167,281.667 234.833,281.667 223.5,281C 224.665,279.008 225.998,277.175 227.5,275.5 Z"/></g>
<g><path style="opacity:1" fill="#123e6f" d="M 459.5,325.5 C 450.593,324.508 442.76,326.841 436,332.5C 430.975,342.148 433.141,349.481 442.5,354.5C 439.455,354.704 436.621,354.704 434,354.5C 433.757,358.325 435.591,360.325 439.5,360.5C 439.215,362.288 439.548,363.955 440.5,365.5C 446.467,368.408 452.8,369.241 459.5,368C 461.762,365.747 462.428,363.247 461.5,360.5C 464.815,365.275 463.482,368.441 457.5,370C 449.536,371.685 442.37,370.185 436,365.5C 432.167,368.815 432.001,371.981 435.5,375C 445.357,379.251 455.357,379.584 465.5,376C 472.876,371.097 474.876,364.597 471.5,356.5C 469.812,355.479 468.479,354.145 467.5,352.5C 469.948,353.372 472.115,354.705 474,356.5C 474.667,361.5 474.667,366.5 474,371.5C 473.29,372.973 472.124,373.64 470.5,373.5C 470.649,374.552 470.483,375.552 470,376.5C 467.847,378.698 465.681,380.698 463.5,382.5C 457.336,380.268 451.002,379.934 444.5,381.5C 440.162,380.005 436.162,377.838 432.5,375C 431.207,374.51 429.873,374.343 428.5,374.5C 428.771,376.38 428.104,377.713 426.5,378.5C 426.5,378.167 426.5,377.833 426.5,377.5C 426.5,375.167 426.5,372.833 426.5,370.5C 426.389,369.883 426.056,369.383 425.5,369C 416.657,368.83 407.99,368.33 399.5,367.5C 408.506,367.334 417.506,367.5 426.5,368C 428.193,370.952 430.026,371.118 432,368.5C 432.667,366.833 432.667,365.167 432,363.5C 431.667,363.833 431.333,364.167 431,364.5C 430.133,362.316 429.299,360.149 428.5,358C 430.662,355.891 432.328,353.391 433.5,350.5C 432.738,343.529 432.238,336.529 432,329.5C 431.411,327.137 429.911,326.137 427.5,326.5C 427.663,328.857 427.497,331.19 427,333.5C 426.617,334.056 426.117,334.389 425.5,334.5C 425.5,331.833 425.5,329.167 425.5,326.5C 412.833,326.5 400.167,326.5 387.5,326.5C 387.5,343.833 387.5,361.167 387.5,378.5C 385.011,378.298 382.677,378.798 380.5,380C 364.304,380.267 348.138,380.433 332,380.5C 327.145,381.255 324.978,379.255 325.5,374.5C 326.167,375.5 326.833,376.5 327.5,377.5C 330.687,378.806 334.02,378.806 337.5,377.5C 337.376,376.893 337.043,376.56 336.5,376.5C 334.831,372.496 333.164,368.496 331.5,364.5C 334.529,367.519 336.862,371.185 338.5,375.5C 339.76,376.382 340.926,377.382 342,378.5C 342.278,377.584 342.778,376.918 343.5,376.5C 349.295,377.83 355.462,378.496 362,378.5C 368.343,378.5 374.509,378.166 380.5,377.5C 380.5,374.833 380.5,372.167 380.5,369.5C 371.5,369.5 362.5,369.5 353.5,369.5C 353.5,355.167 353.5,340.833 353.5,326.5C 350.5,326.5 347.5,326.5 344.5,326.5C 343.504,342.325 343.17,358.325 343.5,374.5C 342.007,373.688 341.34,372.355 341.5,370.5C 342.453,355.189 342.786,339.856 342.5,324.5C 346.182,324.335 349.848,324.501 353.5,325C 354.126,325.75 354.626,326.584 355,327.5C 354.504,341.218 354.338,354.885 354.5,368.5C 363.163,367.954 371.83,367.288 380.5,366.5C 381.246,365.264 381.579,363.93 381.5,362.5C 382.5,362.5 383.5,362.5 384.5,362.5C 384.761,352.141 384.428,341.808 383.5,331.5C 383.616,328.3 384.783,325.633 387,323.5C 399.467,324.638 411.967,324.804 424.5,324C 427.72,323.284 430.72,322.117 433.5,320.5C 432.624,319.749 431.624,319.249 430.5,319C 433.531,317.925 435.531,318.925 436.5,322C 433.844,324.229 434.177,326.062 437.5,327.5C 439.361,326.472 440.695,324.972 441.5,323C 442.333,322.833 443.167,322.667 444,322.5C 449.587,322.707 454.754,323.707 459.5,325.5 Z"/></g>
<g><path style="opacity:1" fill="#c9deea" d="M 198.5,325.5 C 202.214,325.59 205.548,326.59 208.5,328.5C 201.877,327.62 195.211,327.287 188.5,327.5C 191.544,325.989 194.878,325.322 198.5,325.5 Z"/></g>
<g><path style="opacity:1" fill="#174172" d="M 198.5,325.5 C 194.878,325.322 191.544,325.989 188.5,327.5C 171.495,334.528 166.162,346.862 172.5,364.5C 171.732,365.263 171.232,366.263 171,367.5C 170.667,367.167 170.333,366.833 170,366.5C 169.751,359.426 168.918,352.426 167.5,345.5C 169.825,342.049 171.492,338.215 172.5,334C 169.933,330.063 170.266,326.563 173.5,323.5C 174.429,324.689 174.762,326.022 174.5,327.5C 181.141,326.514 187.808,325.514 194.5,324.5C 196.045,324.511 197.378,324.844 198.5,325.5 Z"/></g>
<g><path style="opacity:1" fill="#f3f9f9" d="M 344.5,327.5 C 347.167,327.5 349.833,327.5 352.5,327.5C 352.171,341.677 352.504,355.677 353.5,369.5C 362.5,369.5 371.5,369.5 380.5,369.5C 380.5,372.167 380.5,374.833 380.5,377.5C 368.5,377.5 356.5,377.5 344.5,377.5C 344.5,360.833 344.5,344.167 344.5,327.5 Z"/></g>
<g><path style="opacity:1" fill="#c3d9e7" d="M 235.5,326.5 C 244.349,326.174 253.016,326.507 261.5,327.5C 253.167,327.5 244.833,327.5 236.5,327.5C 236.5,344.167 236.5,360.833 236.5,377.5C 235.503,360.675 235.17,343.675 235.5,326.5 Z"/></g>
<g><path style="opacity:1" fill="#1c436f" d="M 315.5,327.5 C 317.604,329.099 319.604,330.932 321.5,333C 319.937,336.234 320.77,338.734 324,340.5C 326.266,348.667 328.766,356.667 331.5,364.5C 325.415,352.607 320.081,340.273 315.5,327.5 Z"/></g>
<g><path style="opacity:1" fill="#fafcfb" d="M 104.5,326.5 C 107.167,326.5 109.833,326.5 112.5,326.5C 112.5,326.833 112.5,327.167 112.5,327.5C 112.5,327.833 112.5,328.167 112.5,328.5C 113.548,332.6 114.548,336.767 115.5,341C 114,341.833 112.833,343 112,344.5C 111.5,355.161 111.333,365.828 111.5,376.5C 109.167,376.5 106.833,376.5 104.5,376.5C 104.5,359.833 104.5,343.167 104.5,326.5 Z"/></g>
<g><path style="opacity:1" fill="#c6deea" d="M 344.5,327.5 C 344.5,327.167 344.5,326.833 344.5,326.5C 347.5,326.5 350.5,326.5 353.5,326.5C 353.5,340.833 353.5,355.167 353.5,369.5C 352.504,355.677 352.171,341.677 352.5,327.5C 349.833,327.5 347.167,327.5 344.5,327.5 Z"/></g>
<g><path style="opacity:1" fill="#b1c7dc" d="M 425.5,334.5 C 425.167,334.5 424.833,334.5 424.5,334.5C 415.5,334.5 406.5,334.5 397.5,334.5C 406.318,333.507 415.318,333.173 424.5,333.5C 424.5,331.5 424.5,329.5 424.5,327.5C 412.5,327.5 400.5,327.5 388.5,327.5C 388.5,344.167 388.5,360.833 388.5,377.5C 401.167,377.5 413.833,377.5 426.5,377.5C 426.5,377.833 426.5,378.167 426.5,378.5C 413.5,378.5 400.5,378.5 387.5,378.5C 387.5,361.167 387.5,343.833 387.5,326.5C 400.167,326.5 412.833,326.5 425.5,326.5C 425.5,329.167 425.5,331.833 425.5,334.5 Z"/></g>
<g><path style="opacity:1" fill="#edf4f6" d="M 159.5,326.5 C 159.5,343.5 159.5,360.5 159.5,377.5C 156.833,377.5 154.167,377.5 151.5,377.5C 151.832,366.813 151.499,356.146 150.5,345.5C 149.893,345.624 149.56,345.957 149.5,346.5C 145.981,351.537 142.981,356.87 140.5,362.5C 138.275,365.262 136.275,368.262 134.5,371.5C 132.926,372.631 131.259,372.798 129.5,372C 124.362,363.555 119.362,355.055 114.5,346.5C 114.44,345.957 114.107,345.624 113.5,345.5C 112.501,356.146 112.168,366.813 112.5,377.5C 109.615,377.806 106.948,377.473 104.5,376.5C 106.833,376.5 109.167,376.5 111.5,376.5C 111.333,365.828 111.5,355.161 112,344.5C 112.833,343 114,341.833 115.5,341C 114.548,336.767 113.548,332.6 112.5,328.5C 118.975,338.769 125.475,349.102 132,359.5C 133.039,358.756 133.539,357.756 133.5,356.5C 138,350.173 142,343.506 145.5,336.5C 147.85,333.651 149.85,330.485 151.5,327C 154.146,326.503 156.813,326.336 159.5,326.5 Z"/></g>
<g><path style="opacity:1" fill="#173d6a" d="M 140.5,362.5 C 142.981,356.87 145.981,351.537 149.5,346.5C 150.494,356.987 150.828,367.654 150.5,378.5C 153.833,378.5 157.167,378.5 160.5,378.5C 160.83,360.992 160.497,343.659 159.5,326.5C 156.813,326.336 154.146,326.503 151.5,327C 149.85,330.485 147.85,333.651 145.5,336.5C 146.43,332.712 147.763,329.045 149.5,325.5C 152.551,325.636 155.551,325.302 158.5,324.5C 160.425,324.59 161.592,325.59 162,327.5C 162.307,338.833 162.141,350.166 161.5,361.5C 161.667,366.5 161.833,371.5 162,376.5C 162.374,377.416 162.874,378.25 163.5,379C 159.095,381.956 154.595,382.122 150,379.5C 149.667,370.5 149.333,361.5 149,352.5C 147.019,354.359 146.019,356.692 146,359.5C 144.134,360.527 142.3,361.527 140.5,362.5 Z"/></g>
<g><path style="opacity:1" fill="#133f73" d="M 397.5,334.5 C 406.5,334.5 415.5,334.5 424.5,334.5C 425.067,336.03 425.733,337.53 426.5,339C 423.518,339.498 420.518,339.665 417.5,339.5C 417.5,340.5 417.5,341.5 417.5,342.5C 412.156,342.334 406.823,342.501 401.5,343C 400.269,344.183 400.269,345.349 401.5,346.5C 407.414,346.012 413.248,345.012 419,343.5C 422.519,344.799 426.352,346.132 430.5,347.5C 430.5,348.5 430.5,349.5 430.5,350.5C 428.857,350.52 427.524,349.853 426.5,348.5C 425.197,351.043 424.197,353.71 423.5,356.5C 415.833,357.167 408.167,357.833 400.5,358.5C 399.593,361.421 399.26,364.421 399.5,367.5C 398.18,364.101 398.18,360.601 399.5,357C 407.344,356.829 415.011,356.329 422.5,355.5C 422.5,352.833 422.5,350.167 422.5,347.5C 414.167,347.5 405.833,347.5 397.5,347.5C 397.5,343.167 397.5,338.833 397.5,334.5 Z"/></g>
<g><path style="opacity:1" fill="#19406e" d="M 112.5,328.5 C 112.5,328.167 112.5,327.833 112.5,327.5C 114.881,328.719 117.381,329.719 120,330.5C 123.325,338.832 126.992,347.165 131,355.5C 131.671,356.252 132.504,356.586 133.5,356.5C 133.539,357.756 133.039,358.756 132,359.5C 125.475,349.102 118.975,338.769 112.5,328.5 Z"/></g>
<g><path style="opacity:1" fill="#f2f8f8" d="M 188.5,327.5 C 195.211,327.287 201.877,327.62 208.5,328.5C 210.216,328.629 211.883,328.962 213.5,329.5C 217.52,332.358 220.686,336.025 223,340.5C 228.165,353.836 225.331,365.169 214.5,374.5C 213.833,374.5 213.167,374.5 212.5,374.5C 211.883,374.389 211.383,374.056 211,373.5C 209.068,375.038 206.901,376.205 204.5,377C 199.177,377.499 193.844,377.666 188.5,377.5C 181.571,375.048 176.238,370.714 172.5,364.5C 166.162,346.862 171.495,334.528 188.5,327.5 Z"/></g>
<g><path style="opacity:1" fill="#86a0ba" d="M 397.5,347.5 C 405.833,347.5 414.167,347.5 422.5,347.5C 422.5,350.167 422.5,352.833 422.5,355.5C 422.167,355.5 421.833,355.5 421.5,355.5C 421.5,353.167 421.5,350.833 421.5,348.5C 413.316,348.826 405.316,348.492 397.5,347.5 Z"/></g>
<g><path style="opacity:1" fill="#26486f" d="M 112.5,326.5 C 109.833,326.5 107.167,326.5 104.5,326.5C 103.503,343.325 103.17,360.325 103.5,377.5C 102.58,360.646 102.08,343.646 102,326.5C 103.648,324.972 105.648,324.305 108,324.5C 109.986,324.569 111.486,325.235 112.5,326.5 Z"/></g>
<g><path style="opacity:1" fill="#073d7a" d="M 199.5,369.5 C 195.259,370.25 191.926,368.917 189.5,365.5C 188.311,364.571 186.978,364.238 185.5,364.5C 184.615,359.923 183.615,355.423 182.5,351C 182.795,346.916 183.795,343.083 185.5,339.5C 192.785,337.157 200.119,336.991 207.5,339C 209.621,341.198 211.288,343.698 212.5,346.5C 210.761,346.594 208.761,346.761 206.5,347C 208.553,348.08 210.72,348.914 213,349.5C 213.498,352.482 213.665,355.482 213.5,358.5C 212.5,358.5 211.5,358.5 210.5,358.5C 210.046,361.14 208.879,363.473 207,365.5C 204.373,366.768 201.873,368.101 199.5,369.5 Z"/></g>
<g><path style="opacity:1" fill="#f7fcfb" d="M 397.5,334.5 C 397.5,338.833 397.5,343.167 397.5,347.5C 405.316,348.492 413.316,348.826 421.5,348.5C 421.5,350.833 421.5,353.167 421.5,355.5C 413.5,355.5 405.5,355.5 397.5,355.5C 397.5,360.5 397.5,365.5 397.5,370.5C 407.167,370.5 416.833,370.5 426.5,370.5C 426.5,372.833 426.5,375.167 426.5,377.5C 413.833,377.5 401.167,377.5 388.5,377.5C 388.5,360.833 388.5,344.167 388.5,327.5C 400.5,327.5 412.5,327.5 424.5,327.5C 424.5,329.5 424.5,331.5 424.5,333.5C 415.318,333.173 406.318,333.507 397.5,334.5 Z"/></g>
<g><path style="opacity:1" fill="#36577c" d="M 452.5,347.5 C 457.149,348.065 461.816,348.565 466.5,349C 467.337,350.011 467.67,351.178 467.5,352.5C 462.363,350.972 457.363,349.306 452.5,347.5 Z"/></g>
<g><path style="opacity:1" fill="#f0f6f6" d="M 459.5,325.5 C 463.402,326.784 467.068,328.618 470.5,331C 469.976,333.413 468.976,335.58 467.5,337.5C 460.791,334.617 453.791,333.784 446.5,335C 441.288,342.339 443.288,346.506 452.5,347.5C 457.363,349.306 462.363,350.972 467.5,352.5C 468.479,354.145 469.812,355.479 471.5,356.5C 474.876,364.597 472.876,371.097 465.5,376C 455.357,379.584 445.357,379.251 435.5,375C 432.001,371.981 432.167,368.815 436,365.5C 442.37,370.185 449.536,371.685 457.5,370C 463.482,368.441 464.815,365.275 461.5,360.5C 455.583,357.506 449.25,355.506 442.5,354.5C 433.141,349.481 430.975,342.148 436,332.5C 442.76,326.841 450.593,324.508 459.5,325.5 Z"/></g>
<g><path style="opacity:1" fill="#2d4d76" d="M 185.5,339.5 C 183.795,343.083 182.795,346.916 182.5,351C 183.615,355.423 184.615,359.923 185.5,364.5C 186.978,364.238 188.311,364.571 189.5,365.5C 191.926,368.917 195.259,370.25 199.5,369.5C 200.833,369.5 202.167,369.5 203.5,369.5C 187.009,371.851 179.175,364.518 180,347.5C 180.611,343.93 182.444,341.263 185.5,339.5 Z"/></g>
<g><path style="opacity:1" fill="#f4f9f9" d="M 261.5,327.5 C 265.195,327.35 268.528,328.35 271.5,330.5C 280.714,340.014 280.714,349.68 271.5,359.5C 268.924,359.722 268.09,361.055 269,363.5C 272.089,367.354 274.922,371.354 277.5,375.5C 275.012,377.388 272.012,378.055 268.5,377.5C 265.522,372.531 262.189,367.865 258.5,363.5C 254.03,362.514 249.363,362.181 244.5,362.5C 244.5,367.5 244.5,372.5 244.5,377.5C 241.833,377.5 239.167,377.5 236.5,377.5C 236.5,360.833 236.5,344.167 236.5,327.5C 244.833,327.5 253.167,327.5 261.5,327.5 Z"/></g>
<g><path style="opacity:1" fill="#718ca1" d="M 245.5,334.5 C 245.5,341.167 245.5,347.833 245.5,354.5C 250.167,354.5 254.833,354.5 259.5,354.5C 254.695,355.487 249.695,355.821 244.5,355.5C 244.175,348.313 244.509,341.313 245.5,334.5 Z"/></g>
<g><path style="opacity:1" fill="#1a4069" d="M 245.5,334.5 C 250.511,334.334 255.511,334.501 260.5,335C 262.32,335.2 263.653,336.034 264.5,337.5C 262.173,337.247 260.173,337.914 258.5,339.5C 256.889,338.68 256.222,337.346 256.5,335.5C 253.167,335.5 249.833,335.5 246.5,335.5C 246.5,341.5 246.5,347.5 246.5,353.5C 249.808,354.026 251.974,352.693 253,349.5C 255.984,352.1 259.484,353.1 263.5,352.5C 263.5,351.167 263.5,349.833 263.5,348.5C 259.843,348.026 259.676,346.693 263,344.5C 264,345.5 265,346.5 266,347.5C 266.498,344.518 266.665,341.518 266.5,338.5C 269.891,344.451 268.891,349.617 263.5,354C 262.207,354.49 260.873,354.657 259.5,354.5C 254.833,354.5 250.167,354.5 245.5,354.5C 245.5,347.833 245.5,341.167 245.5,334.5 Z"/></g>
<g><path style="opacity:1" fill="#063c78" d="M 264.5,337.5 C 265.167,337.833 265.833,338.167 266.5,338.5C 266.665,341.518 266.498,344.518 266,347.5C 265,346.5 264,345.5 263,344.5C 259.676,346.693 259.843,348.026 263.5,348.5C 263.5,349.833 263.5,351.167 263.5,352.5C 259.484,353.1 255.984,352.1 253,349.5C 251.974,352.693 249.808,354.026 246.5,353.5C 246.5,347.5 246.5,341.5 246.5,335.5C 249.833,335.5 253.167,335.5 256.5,335.5C 256.222,337.346 256.889,338.68 258.5,339.5C 260.173,337.914 262.173,337.247 264.5,337.5 Z"/></g>
<g><path style="opacity:1" fill="#194068" d="M 442.5,354.5 C 449.25,355.506 455.583,357.506 461.5,360.5C 455.77,358.436 449.77,357.269 443.5,357C 442.748,356.329 442.414,355.496 442.5,354.5 Z"/></g>
<g><path style="opacity:1" fill="#063c79" d="M 442.5,354.5 C 442.414,355.496 442.748,356.329 443.5,357C 449.77,357.269 455.77,358.436 461.5,360.5C 462.428,363.247 461.762,365.747 459.5,368C 452.8,369.241 446.467,368.408 440.5,365.5C 439.548,363.955 439.215,362.288 439.5,360.5C 435.591,360.325 433.757,358.325 434,354.5C 436.621,354.704 439.455,354.704 442.5,354.5 Z"/></g>
<g><path style="opacity:1" fill="#113e70" d="M 271.5,330.5 C 275.529,329.853 277.529,331.853 277.5,336.5C 278.5,336.5 279.5,336.5 280.5,336.5C 280.5,340.5 280.5,344.5 280.5,348.5C 281.833,348.5 283.167,348.5 284.5,348.5C 284.095,344.952 284.595,341.619 286,338.5C 286.833,339.333 287.667,340.167 288.5,341C 286.153,344.917 285.486,349.084 286.5,353.5C 291.747,353.36 292.747,351.194 289.5,347C 290.227,345.601 290.727,344.101 291,342.5C 292.183,343.731 293.349,343.731 294.5,342.5C 295.806,341.088 296.64,339.421 297,337.5C 297.816,336.177 298.983,335.511 300.5,335.5C 294.498,348.864 288.498,362.198 282.5,375.5C 281.596,376.209 281.263,377.209 281.5,378.5C 285.042,378.813 288.375,378.479 291.5,377.5C 292.754,373.824 294.421,370.324 296.5,367C 305.186,366.168 313.853,366.335 322.5,367.5C 323.788,369.739 324.788,372.072 325.5,374.5C 322.687,373.554 321.354,371.554 321.5,368.5C 313.826,368.334 306.159,368.5 298.5,369C 295.105,372.258 293.938,376.092 295,380.5C 292.932,381.394 290.765,382.06 288.5,382.5C 283.197,381.764 277.863,381.264 272.5,381C 271.748,380.329 271.414,379.496 271.5,378.5C 274.247,378.813 276.914,378.48 279.5,377.5C 279.145,376.478 278.478,375.811 277.5,375.5C 274.922,371.354 272.089,367.354 269,363.5C 268.09,361.055 268.924,359.722 271.5,359.5C 280.714,349.68 280.714,340.014 271.5,330.5 Z"/></g>
<g><path style="opacity:1" fill="#f0f6f6" d="M 315.5,327.5 C 320.081,340.273 325.415,352.607 331.5,364.5C 333.164,368.496 334.831,372.496 336.5,376.5C 333.713,377.477 330.713,377.81 327.5,377.5C 326.833,376.5 326.167,375.5 325.5,374.5C 324.788,372.072 323.788,369.739 322.5,367.5C 313.853,366.335 305.186,366.168 296.5,367C 294.421,370.324 292.754,373.824 291.5,377.5C 287.988,378.055 284.988,377.388 282.5,375.5C 288.498,362.198 294.498,348.864 300.5,335.5C 301.728,332.666 303.061,329.833 304.5,327C 308.255,326.245 311.922,326.411 315.5,327.5 Z"/></g>
<g><path style="opacity:1" fill="#375876" d="M 305.5,346.5 C 305.371,349.766 304.371,352.766 302.5,355.5C 302.709,356.086 303.043,356.586 303.5,357C 307.871,357.828 312.205,357.661 316.5,356.5C 315.691,354.929 315.357,353.262 315.5,351.5C 317.293,353.426 318.293,355.759 318.5,358.5C 312.5,358.5 306.5,358.5 300.5,358.5C 301.097,353.983 302.763,349.983 305.5,346.5 Z"/></g>
<g><path style="opacity:1" fill="#123f73" d="M 315.5,351.5 C 315.357,353.262 315.691,354.929 316.5,356.5C 312.205,357.661 307.871,357.828 303.5,357C 303.043,356.586 302.709,356.086 302.5,355.5C 304.371,352.766 305.371,349.766 305.5,346.5C 306.265,343.534 307.598,340.867 309.5,338.5C 312.305,342.445 314.305,346.778 315.5,351.5 Z"/></g>
<g><path style="opacity:1" fill="#869cb3" d="M 104.5,326.5 C 104.5,343.167 104.5,359.833 104.5,376.5C 106.948,377.473 109.615,377.806 112.5,377.5C 112.168,366.813 112.501,356.146 113.5,345.5C 114.107,345.624 114.44,345.957 114.5,346.5C 113.507,354.65 113.174,362.983 113.5,371.5C 113.5,373.833 113.5,376.167 113.5,378.5C 109.958,378.813 106.625,378.479 103.5,377.5C 103.17,360.325 103.503,343.325 104.5,326.5 Z"/></g>
<g><path style="opacity:1" fill="#7c98b2" d="M 159.5,326.5 C 160.497,343.659 160.83,360.992 160.5,378.5C 157.167,378.5 153.833,378.5 150.5,378.5C 150.828,367.654 150.494,356.987 149.5,346.5C 149.56,345.957 149.893,345.624 150.5,345.5C 151.499,356.146 151.832,366.813 151.5,377.5C 154.167,377.5 156.833,377.5 159.5,377.5C 159.5,360.5 159.5,343.5 159.5,326.5 Z"/></g>
<g><path style="opacity:1" fill="#063c7a" d="M 271.5,359.5 C 273.117,358.962 274.784,358.629 276.5,358.5C 276.731,355.1 278.564,353.1 282,352.5C 284.144,356.713 284.977,361.046 284.5,365.5C 283.155,364.653 282.155,363.487 281.5,362C 279.888,361.28 278.388,361.446 277,362.5C 276.333,363.167 276.333,363.833 277,364.5C 278.533,364.944 280.033,365.277 281.5,365.5C 283.042,368.536 282.375,370.869 279.5,372.5C 276.365,371.233 275.032,368.9 275.5,365.5C 273.176,365.338 271.509,364.172 270.5,362C 271.252,361.329 271.586,360.496 271.5,359.5 Z"/></g>
<g><path style="opacity:1" fill="#053c7a" d="M 399.5,367.5 C 399.26,364.421 399.593,361.421 400.5,358.5C 408.167,357.833 415.833,357.167 423.5,356.5C 424.197,353.71 425.197,351.043 426.5,348.5C 427.524,349.853 428.857,350.52 430.5,350.5C 430.5,349.5 430.5,348.5 430.5,347.5C 426.352,346.132 422.519,344.799 419,343.5C 413.248,345.012 407.414,346.012 401.5,346.5C 400.269,345.349 400.269,344.183 401.5,343C 406.823,342.501 412.156,342.334 417.5,342.5C 417.5,341.5 417.5,340.5 417.5,339.5C 420.518,339.665 423.518,339.498 426.5,339C 425.733,337.53 425.067,336.03 424.5,334.5C 424.833,334.5 425.167,334.5 425.5,334.5C 426.117,334.389 426.617,334.056 427,333.5C 427.497,331.19 427.663,328.857 427.5,326.5C 429.911,326.137 431.411,327.137 432,329.5C 432.238,336.529 432.738,343.529 433.5,350.5C 432.328,353.391 430.662,355.891 428.5,358C 429.299,360.149 430.133,362.316 431,364.5C 431.333,364.167 431.667,363.833 432,363.5C 432.667,365.167 432.667,366.833 432,368.5C 430.026,371.118 428.193,370.952 426.5,368C 417.506,367.5 408.506,367.334 399.5,367.5 Z"/></g>
<g><path style="opacity:1" fill="#1a4370" d="M 213.5,329.5 C 216.288,329.077 218.288,330.077 219.5,332.5C 221.108,333.318 222.775,333.985 224.5,334.5C 225.522,337.441 226.355,340.441 227,343.5C 227.333,349.833 227.667,356.167 228,362.5C 229.756,364.059 229.756,365.726 228,367.5C 227.28,365.745 226.113,364.911 224.5,365C 222.591,369.744 219.258,372.911 214.5,374.5C 225.331,365.169 228.165,353.836 223,340.5C 220.686,336.025 217.52,332.358 213.5,329.5 Z"/></g>
<g><path style="opacity:1" fill="#3f5d7e" d="M 421.5,355.5 C 421.833,355.5 422.167,355.5 422.5,355.5C 415.011,356.329 407.344,356.829 399.5,357C 398.18,360.601 398.18,364.101 399.5,367.5C 407.99,368.33 416.657,368.83 425.5,369C 426.056,369.383 426.389,369.883 426.5,370.5C 416.833,370.5 407.167,370.5 397.5,370.5C 397.5,365.5 397.5,360.5 397.5,355.5C 405.5,355.5 413.5,355.5 421.5,355.5 Z"/></g>
<g><path style="opacity:1" fill="#1f446c" d="M 203.5,369.5 C 202.167,369.5 200.833,369.5 199.5,369.5C 201.873,368.101 204.373,366.768 207,365.5C 208.879,363.473 210.046,361.14 210.5,358.5C 211.5,358.5 212.5,358.5 213.5,358.5C 213.665,355.482 213.498,352.482 213,349.5C 210.72,348.914 208.553,348.08 206.5,347C 208.761,346.761 210.761,346.594 212.5,346.5C 211.288,343.698 209.621,341.198 207.5,339C 200.119,336.991 192.785,337.157 185.5,339.5C 187.253,337.777 189.253,336.277 191.5,335C 201.037,332.693 208.537,335.527 214,343.5C 218.448,355.581 214.948,364.248 203.5,369.5 Z"/></g>
<g><path style="opacity:1" fill="#18416f" d="M 114.5,346.5 C 119.362,355.055 124.362,363.555 129.5,372C 131.259,372.798 132.926,372.631 134.5,371.5C 136.275,368.262 138.275,365.262 140.5,362.5C 140.877,365.525 141.044,368.525 141,371.5C 139.613,367.693 138.113,367.693 136.5,371.5C 137.388,373.155 137.888,374.822 138,376.5C 137.586,376.957 137.086,377.291 136.5,377.5C 133.574,373.538 130.741,373.538 128,377.5C 127.667,375.167 127.333,372.833 127,370.5C 123.506,366.186 120.506,361.519 118,356.5C 117,355.833 116,355.167 115,354.5C 114.827,360.348 114.327,366.015 113.5,371.5C 113.174,362.983 113.507,354.65 114.5,346.5 Z"/></g>
<g><path style="opacity:1" fill="#6886a2" d="M 235.5,326.5 C 235.17,343.675 235.503,360.675 236.5,377.5C 239.167,377.5 241.833,377.5 244.5,377.5C 244.5,372.5 244.5,367.5 244.5,362.5C 249.363,362.181 254.03,362.514 258.5,363.5C 254.167,363.5 249.833,363.5 245.5,363.5C 245.5,368.5 245.5,373.5 245.5,378.5C 241.833,378.5 238.167,378.5 234.5,378.5C 234.17,360.992 234.503,343.659 235.5,326.5 Z"/></g>
<g><path style="opacity:1" fill="#bcd4e2" d="M 212.5,374.5 C 210.507,376.163 208.174,377.33 205.5,378C 199.651,378.818 193.985,378.652 188.5,377.5C 193.844,377.666 199.177,377.499 204.5,377C 206.901,376.205 209.068,375.038 211,373.5C 211.383,374.056 211.883,374.389 212.5,374.5 Z"/></g>
<g><path style="opacity:1" fill="#7397bc" d="M 277.5,375.5 C 278.478,375.811 279.145,376.478 279.5,377.5C 276.914,378.48 274.247,378.813 271.5,378.5C 270.209,378.737 269.209,378.404 268.5,377.5C 272.012,378.055 275.012,377.388 277.5,375.5 Z"/></g>
<g><path style="opacity:1" fill="#7293b7" d="M 282.5,375.5 C 284.988,377.388 287.988,378.055 291.5,377.5C 288.375,378.479 285.042,378.813 281.5,378.5C 281.263,377.209 281.596,376.209 282.5,375.5 Z"/></g>
<g><path style="opacity:1" fill="#6e94b2" d="M 336.5,376.5 C 337.043,376.56 337.376,376.893 337.5,377.5C 334.02,378.806 330.687,378.806 327.5,377.5C 330.713,377.81 333.713,377.477 336.5,376.5 Z"/></g>
<g><path style="opacity:1" fill="#85a1c0" d="M 344.5,326.5 C 344.5,326.833 344.5,327.167 344.5,327.5C 344.5,344.167 344.5,360.833 344.5,377.5C 356.5,377.5 368.5,377.5 380.5,377.5C 374.509,378.166 368.343,378.5 362,378.5C 355.462,378.496 349.295,377.83 343.5,376.5C 343.5,375.833 343.5,375.167 343.5,374.5C 343.17,358.325 343.504,342.325 344.5,326.5 Z"/></g>
<g><path style="opacity:1" fill="#20476f" d="M 172.5,364.5 C 176.238,370.714 181.571,375.048 188.5,377.5C 193.985,378.652 199.651,378.818 205.5,378C 208.174,377.33 210.507,376.163 212.5,374.5C 213.167,374.5 213.833,374.5 214.5,374.5C 212.512,377.696 209.512,379.529 205.5,380C 199.167,382 192.833,382 186.5,380C 182.744,377.763 179.077,375.263 175.5,372.5C 173.917,370.01 172.917,367.343 172.5,364.5 Z"/></g>
<g><path style="opacity:1" fill="#164170" d="M 288.5,400.5 C 284.097,395.414 278.764,394.248 272.5,397C 267.022,403.545 267.355,409.879 273.5,416C 277.221,416.678 280.888,416.511 284.5,415.5C 283.583,417.511 281.917,418.511 279.5,418.5C 276.678,418.448 274.011,417.781 271.5,416.5C 270.108,417.605 268.941,418.939 268,420.5C 267.752,415.437 267.085,410.437 266,405.5C 266.083,409.311 265.25,412.645 263.5,415.5C 263.823,408.978 263.49,402.645 262.5,396.5C 261.5,396.5 260.5,396.5 259.5,396.5C 259.5,402.833 259.5,409.167 259.5,415.5C 260.209,416.404 261.209,416.737 262.5,416.5C 262.799,421.943 261.465,422.61 258.5,418.5C 257.311,417.571 255.978,417.238 254.5,417.5C 254.66,415.801 254.494,414.134 254,412.5C 253.617,413.056 253.117,413.389 252.5,413.5C 255.1,408.8 255.1,404.133 252.5,399.5C 253.978,399.238 255.311,399.571 256.5,400.5C 255.236,404.153 255.236,407.82 256.5,411.5C 257.674,402.831 257.674,394.164 256.5,385.5C 259.3,385.111 261.967,384.611 264.5,384C 264.983,388.475 265.316,392.975 265.5,397.5C 266.935,396.176 267.935,394.51 268.5,392.5C 269.386,393.325 269.719,394.325 269.5,395.5C 272.876,395.526 276.042,394.859 279,393.5C 281.958,394.859 285.124,395.526 288.5,395.5C 288.5,397.167 288.5,398.833 288.5,400.5 Z"/></g>
<g><path style="opacity:1" fill="#c6ddea" d="M 259.5,387.5 C 260.833,387.5 262.167,387.5 263.5,387.5C 263.99,389.948 263.157,391.615 261,392.5C 258.389,391.5 257.889,389.833 259.5,387.5 Z"/></g>
<g><path style="opacity:1" fill="#204473" d="M 409.5,408.5 C 406.01,405.951 402.01,404.451 397.5,404C 396.62,402.644 396.286,401.144 396.5,399.5C 400.215,399.423 403.881,399.756 407.5,400.5C 407.5,399.167 407.5,397.833 407.5,396.5C 402.333,394.767 397.5,395.434 393,398.5C 391.621,402.475 392.787,405.309 396.5,407C 398.891,407.287 401.224,407.787 403.5,408.5C 404.747,410.006 404.747,411.506 403.5,413C 399.958,413.851 396.625,413.351 393.5,411.5C 390.936,413.019 390.936,414.519 393.5,416C 397.92,416.768 402.253,416.602 406.5,415.5C 406.423,416.75 405.756,417.583 404.5,418C 400.833,418.667 397.167,418.667 393.5,418C 391.609,416.558 389.609,415.391 387.5,414.5C 387.585,413.005 386.919,412.005 385.5,411.5C 380.044,414.873 375.711,413.873 372.5,408.5C 378.128,407.505 383.794,407.171 389.5,407.5C 389.005,399.338 384.671,395.338 376.5,395.5C 379.595,394.034 382.595,394.368 385.5,396.5C 386.631,395.249 387.964,394.249 389.5,393.5C 391.782,394.223 394.116,394.557 396.5,394.5C 396.5,393.5 396.5,392.5 396.5,391.5C 397.978,391.238 399.311,391.571 400.5,392.5C 400.291,393.086 399.957,393.586 399.5,394C 403.619,394.143 407.619,394.81 411.5,396C 412.406,397.699 412.739,399.533 412.5,401.5C 410.169,401.498 408.169,402.331 406.5,404C 407.448,404.483 408.448,404.649 409.5,404.5C 409.5,405.833 409.5,407.167 409.5,408.5 Z"/></g>
<g><path style="opacity:1" fill="#466885" d="M 196.5,394.5 C 197.391,395.11 198.391,395.443 199.5,395.5C 201.167,395.5 202.833,395.5 204.5,395.5C 204.768,397.099 204.434,398.432 203.5,399.5C 203.5,398.5 203.5,397.5 203.5,396.5C 200.956,396.104 198.789,396.771 197,398.5C 196.29,397.027 195.124,396.36 193.5,396.5C 193.167,396.5 192.833,396.5 192.5,396.5C 193.183,394.824 194.517,394.157 196.5,394.5 Z"/></g>
<g><path style="opacity:1" fill="#204267" d="M 313.5,414.5 C 313.5,405.5 313.5,396.5 313.5,387.5C 312.167,387.5 310.833,387.5 309.5,387.5C 309.82,390.898 309.487,394.232 308.5,397.5C 303.004,394.533 298.004,395.2 293.5,399.5C 293.472,397.418 294.139,395.584 295.5,394C 299.774,394.291 304.107,394.457 308.5,394.5C 307.447,391.148 307.447,387.815 308.5,384.5C 311.498,383.412 313.664,384.412 315,387.5C 315.059,396.662 314.559,405.662 313.5,414.5 Z"/></g>
<g><path style="opacity:1" fill="#6e89a1" d="M 166.5,396.5 C 168.347,395.427 170.347,395.427 172.5,396.5C 172.189,397.478 171.522,398.145 170.5,398.5C 169.476,397.147 168.143,396.48 166.5,396.5 Z"/></g>
<g><path style="opacity:1" fill="#204570" d="M 210.5,415.5 C 222.713,418.652 228.213,413.985 227,401.5C 220.669,393.898 214.003,393.565 207,400.5C 206.502,403.817 206.335,407.15 206.5,410.5C 205.307,410.03 204.64,409.03 204.5,407.5C 204.997,405.182 205.33,402.848 205.5,400.5C 203.5,400.5 201.5,400.5 199.5,400.5C 200.568,399.566 201.901,399.232 203.5,399.5C 204.434,398.432 204.768,397.099 204.5,395.5C 202.833,395.5 201.167,395.5 199.5,395.5C 200.312,394.007 201.645,393.34 203.5,393.5C 207.989,394.67 212.489,394.67 217,393.5C 228.798,394.789 232.464,401.122 228,412.5C 224.02,418.257 218.686,419.924 212,417.5C 210.97,417.164 210.47,416.497 210.5,415.5 Z"/></g>
<g><path style="opacity:1" fill="#d9e8f1" d="M 210.5,415.5 C 209.167,413.833 207.833,412.167 206.5,410.5C 206.335,407.15 206.502,403.817 207,400.5C 214.003,393.565 220.669,393.898 227,401.5C 228.213,413.985 222.713,418.652 210.5,415.5 Z"/></g>
<g><path style="opacity:1" fill="#8da4b8" d="M 262.5,396.5 C 263.49,402.645 263.823,408.978 263.5,415.5C 263.5,416.167 263.167,416.5 262.5,416.5C 261.209,416.737 260.209,416.404 259.5,415.5C 260.5,415.5 261.5,415.5 262.5,415.5C 262.5,409.167 262.5,402.833 262.5,396.5 Z"/></g>
<g><path style="opacity:1" fill="#c1d7e6" d="M 192.5,396.5 C 192.833,396.5 193.167,396.5 193.5,396.5C 193.17,402.868 193.504,409.202 194.5,415.5C 195.167,411.353 195.834,407.353 196.5,403.5C 196.5,407.833 196.5,412.167 196.5,416.5C 195.167,416.5 193.833,416.5 192.5,416.5C 192.5,409.833 192.5,403.167 192.5,396.5 Z"/></g>
<g><path style="opacity:1" fill="#dae9f0" d="M 313.5,414.5 C 313.5,415.167 313.5,415.833 313.5,416.5C 311.508,416.672 309.842,416.005 308.5,414.5C 297.299,418.652 291.966,414.652 292.5,402.5C 292.557,401.391 292.89,400.391 293.5,399.5C 298.004,395.2 303.004,394.533 308.5,397.5C 309.487,394.232 309.82,390.898 309.5,387.5C 310.833,387.5 312.167,387.5 313.5,387.5C 313.5,396.5 313.5,405.5 313.5,414.5 Z"/></g>
<g><path style="opacity:1" fill="#d5e6ed" d="M 409.5,408.5 C 409.85,411.453 408.85,413.787 406.5,415.5C 402.253,416.602 397.92,416.768 393.5,416C 390.936,414.519 390.936,413.019 393.5,411.5C 396.625,413.351 399.958,413.851 403.5,413C 404.747,411.506 404.747,410.006 403.5,408.5C 401.224,407.787 398.891,407.287 396.5,407C 392.787,405.309 391.621,402.475 393,398.5C 397.5,395.434 402.333,394.767 407.5,396.5C 407.5,397.833 407.5,399.167 407.5,400.5C 403.881,399.756 400.215,399.423 396.5,399.5C 396.286,401.144 396.62,402.644 397.5,404C 402.01,404.451 406.01,405.951 409.5,408.5 Z"/></g>
<g><path style="opacity:1" fill="#d9e9ef" d="M 288.5,400.5 C 288.5,401.167 288.5,401.833 288.5,402.5C 288.5,404.167 288.5,405.833 288.5,407.5C 283.167,407.5 277.833,407.5 272.5,407.5C 273.56,413.095 276.893,414.929 282.5,413C 284.023,411.212 285.69,411.045 287.5,412.5C 287.5,414.5 286.5,415.5 284.5,415.5C 280.888,416.511 277.221,416.678 273.5,416C 267.355,409.879 267.022,403.545 272.5,397C 278.764,394.248 284.097,395.414 288.5,400.5 Z"/></g>
<g><path style="opacity:1" fill="#e9f5f6" d="M 193.5,396.5 C 195.124,396.36 196.29,397.027 197,398.5C 198.789,396.771 200.956,396.104 203.5,396.5C 203.5,397.5 203.5,398.5 203.5,399.5C 201.901,399.232 200.568,399.566 199.5,400.5C 198.167,401.167 197.167,402.167 196.5,403.5C 195.834,407.353 195.167,411.353 194.5,415.5C 193.504,409.202 193.17,402.868 193.5,396.5 Z"/></g>
<g><path style="opacity:1" fill="#0d3c77" d="M 247.5,400.5 C 248.551,401.222 249.218,402.222 249.5,403.5C 249.5,405.167 249.5,406.833 249.5,408.5C 248.167,408.5 246.833,408.5 245.5,408.5C 245.333,405.043 244.333,404.71 242.5,407.5C 244.297,408.695 245.297,410.362 245.5,412.5C 244.5,412.5 243.5,412.5 242.5,412.5C 242.5,411.5 242.5,410.5 242.5,409.5C 241.178,409.67 240.011,409.337 239,408.5C 238.101,402.002 240.934,399.335 247.5,400.5 Z"/></g>
<g><path style="opacity:1" fill="#f2faff" d="M 262.5,396.5 C 262.5,402.833 262.5,409.167 262.5,415.5C 261.5,415.5 260.5,415.5 259.5,415.5C 259.5,409.167 259.5,402.833 259.5,396.5C 260.5,396.5 261.5,396.5 262.5,396.5 Z"/></g>
<g><path style="opacity:1" fill="#1e446d" d="M 284.5,402.5 C 280.971,404.423 276.971,405.089 272.5,404.5C 272.33,403.178 272.663,402.011 273.5,401C 277.705,398.614 281.371,399.114 284.5,402.5 Z"/></g>
<g><path style="opacity:1" fill="#173f74" d="M 298.5,399.5 C 306.825,397.993 310.325,401.327 309,409.5C 305.432,414.41 301.432,414.743 297,410.5C 296.112,406.598 296.612,402.931 298.5,399.5 Z"/></g>
<g><path style="opacity:1" fill="#274b73" d="M 335.5,398.5 C 331.077,395.098 326.411,394.765 321.5,397.5C 320.167,398.5 320.167,399.5 321.5,400.5C 326.689,397.201 330.689,398.201 333.5,403.5C 329.13,404.203 324.796,405.036 320.5,406C 318.845,407.444 318.178,409.278 318.5,411.5C 316.609,407.741 317.609,404.908 321.5,403C 316.689,400.898 316.355,398.232 320.5,395C 323.89,394.754 327.223,394.254 330.5,393.5C 333.212,394.212 334.879,395.879 335.5,398.5 Z"/></g>
<g><path style="opacity:1" fill="#94a4b4" d="M 284.5,402.5 C 285.404,403.209 285.737,404.209 285.5,405.5C 280.968,405.818 276.634,405.485 272.5,404.5C 276.971,405.089 280.971,404.423 284.5,402.5 Z"/></g>
<g><path style="opacity:1" fill="#ecf9fd" d="M 233.5,396.5 C 235.387,397.656 236.721,399.323 237.5,401.5C 235.128,409.467 238.128,413.467 246.5,413.5C 246.611,414.117 246.944,414.617 247.5,415C 244.854,415.497 242.187,415.664 239.5,415.5C 238.85,415.196 238.183,414.863 237.5,414.5C 236.516,417.428 236.183,420.428 236.5,423.5C 235.5,423.5 234.5,423.5 233.5,423.5C 233.5,414.5 233.5,405.5 233.5,396.5 Z"/></g>
<g><path style="opacity:1" fill="#d3e6ee" d="M 335.5,398.5 C 336.338,398.842 336.672,399.508 336.5,400.5C 336.5,405.5 336.5,410.5 336.5,415.5C 335.5,415.5 334.5,415.5 333.5,415.5C 333.565,415.062 333.399,414.728 333,414.5C 330.049,416.076 326.883,416.743 323.5,416.5C 320.856,415.856 319.189,414.189 318.5,411.5C 318.178,409.278 318.845,407.444 320.5,406C 324.796,405.036 329.13,404.203 333.5,403.5C 330.689,398.201 326.689,397.201 321.5,400.5C 320.167,399.5 320.167,398.5 321.5,397.5C 326.411,394.765 331.077,395.098 335.5,398.5 Z"/></g>
<g><path style="opacity:1" fill="#dae8ee" d="M 376.5,395.5 C 384.671,395.338 389.005,399.338 389.5,407.5C 383.794,407.171 378.128,407.505 372.5,408.5C 375.711,413.873 380.044,414.873 385.5,411.5C 386.919,412.005 387.585,413.005 387.5,414.5C 383.424,416.442 379.091,416.942 374.5,416C 367.879,411.16 366.879,405.327 371.5,398.5C 373.145,397.304 374.811,396.304 376.5,395.5 Z"/></g>
<g><path style="opacity:1" fill="#8d9dac" d="M 373.5,402.5 C 374.871,403.787 376.705,404.453 379,404.5C 381.295,404.453 383.129,403.787 384.5,402.5C 385.404,403.209 385.737,404.209 385.5,405.5C 381.167,405.5 376.833,405.5 372.5,405.5C 372.263,404.209 372.596,403.209 373.5,402.5 Z"/></g>
<g><path style="opacity:1" fill="#1b4570" d="M 384.5,402.5 C 383.129,403.787 381.295,404.453 379,404.5C 376.705,404.453 374.871,403.787 373.5,402.5C 374.417,400.489 376.083,399.489 378.5,399.5C 381.308,399.078 383.308,400.078 384.5,402.5 Z"/></g>
<g><path style="opacity:1" fill="#deecf2" d="M 182.5,396.5 C 184.307,397.836 185.807,399.503 187,401.5C 188.158,406.307 187.324,410.64 184.5,414.5C 182.833,415.167 181.167,415.833 179.5,416.5C 176.941,416.802 174.607,416.468 172.5,415.5C 171.791,414.596 170.791,414.263 169.5,414.5C 169.5,417.5 169.5,420.5 169.5,423.5C 168.5,423.5 167.5,423.5 166.5,423.5C 166.5,414.5 166.5,405.5 166.5,396.5C 168.143,396.48 169.476,397.147 170.5,398.5C 171.522,398.145 172.189,397.478 172.5,396.5C 175.781,395.372 179.115,395.372 182.5,396.5 Z"/></g>
<g><path style="opacity:1" fill="#0e3d7a" d="M 180.5,400.5 C 180.539,401.583 180.873,402.583 181.5,403.5C 179.777,405.868 179.11,408.534 179.5,411.5C 177.833,411.5 176.167,411.5 174.5,411.5C 174.662,409.473 174.495,407.473 174,405.5C 172.294,404.692 171.461,403.359 171.5,401.5C 174.222,399.327 177.222,398.994 180.5,400.5 Z"/></g>
<g><path style="opacity:1" fill="#1d426d" d="M 180.5,400.5 C 184.554,404.767 184.221,408.934 179.5,413C 170.813,413.416 168.147,409.583 171.5,401.5C 171.461,403.359 172.294,404.692 174,405.5C 174.495,407.473 174.662,409.473 174.5,411.5C 176.167,411.5 177.833,411.5 179.5,411.5C 179.11,408.534 179.777,405.868 181.5,403.5C 180.873,402.583 180.539,401.583 180.5,400.5 Z"/></g>
<g><path style="opacity:1" fill="#284772" d="M 247.5,400.5 C 240.934,399.335 238.101,402.002 239,408.5C 240.011,409.337 241.178,409.67 242.5,409.5C 242.5,410.5 242.5,411.5 242.5,412.5C 243.5,412.5 244.5,412.5 245.5,412.5C 245.297,410.362 244.297,408.695 242.5,407.5C 244.333,404.71 245.333,405.043 245.5,408.5C 246.833,408.5 248.167,408.5 249.5,408.5C 249.5,406.833 249.5,405.167 249.5,403.5C 250.622,405.288 250.789,407.288 250,409.5C 248.624,410.705 247.458,412.038 246.5,413.5C 238.128,413.467 235.128,409.467 237.5,401.5C 240.712,399.347 244.045,399.014 247.5,400.5 Z"/></g>
<g><path style="opacity:1" fill="#d0e1e9" d="M 233.5,396.5 C 234.952,395.287 236.286,395.62 237.5,397.5C 243.051,394.436 248.051,395.103 252.5,399.5C 255.1,404.133 255.1,408.8 252.5,413.5C 248.451,416.503 244.118,417.169 239.5,415.5C 242.187,415.664 244.854,415.497 247.5,415C 246.944,414.617 246.611,414.117 246.5,413.5C 247.458,412.038 248.624,410.705 250,409.5C 250.789,407.288 250.622,405.288 249.5,403.5C 249.218,402.222 248.551,401.222 247.5,400.5C 244.045,399.014 240.712,399.347 237.5,401.5C 236.721,399.323 235.387,397.656 233.5,396.5 Z"/></g>
<g><path style="opacity:1" fill="#86a4bc" d="M 336.5,400.5 C 337.833,405.833 337.833,411.167 336.5,416.5C 335.209,416.737 334.209,416.404 333.5,415.5C 334.5,415.5 335.5,415.5 336.5,415.5C 336.5,410.5 336.5,405.5 336.5,400.5 Z"/></g>
<g><path style="opacity:1" fill="#2c4868" d="M 212.5,399.5 C 222.745,398.57 225.745,402.736 221.5,412C 215.093,414.796 211.093,412.796 209.5,406C 210.259,403.735 211.259,401.568 212.5,399.5 Z"/></g>
<g><path style="opacity:1" fill="#033e7b" d="M 214.5,401.5 C 220.842,401.139 222.842,403.972 220.5,410C 217.688,410.466 215.021,409.966 212.5,408.5C 210.856,405.397 211.523,403.064 214.5,401.5 Z"/></g>
<g><path style="opacity:1" fill="#355374" d="M 252.5,399.5 C 248.051,395.103 243.051,394.436 237.5,397.5C 236.286,395.62 234.952,395.287 233.5,396.5C 233.5,405.5 233.5,414.5 233.5,423.5C 234.5,423.5 235.5,423.5 236.5,423.5C 235.081,424.451 233.415,424.784 231.5,424.5C 231.5,414.5 231.5,404.5 231.5,394.5C 238.23,393.943 244.896,393.943 251.5,394.5C 251.629,396.216 251.962,397.883 252.5,399.5 Z"/></g>
<g><path style="opacity:1" fill="#244670" d="M 288.5,402.5 C 289.158,403.398 289.824,404.398 290.5,405.5C 291.176,404.398 291.842,403.398 292.5,402.5C 291.966,414.652 297.299,418.652 308.5,414.5C 309.842,416.005 311.508,416.672 313.5,416.5C 308.379,417.97 303.046,418.47 297.5,418C 296.062,417.781 294.729,417.281 293.5,416.5C 292.42,414.004 291.086,411.67 289.5,409.5C 289.912,410.782 289.246,411.782 287.5,412.5C 285.69,411.045 284.023,411.212 282.5,413C 276.893,414.929 273.56,413.095 272.5,407.5C 277.833,407.5 283.167,407.5 288.5,407.5C 288.5,405.833 288.5,404.167 288.5,402.5 Z"/></g>
<g><path style="opacity:1" fill="#25446f" d="M 323.5,407.5 C 326.5,407.5 329.5,407.5 332.5,407.5C 332.068,413.333 329.068,414.999 323.5,412.5C 322.334,410.833 322.334,409.166 323.5,407.5 Z"/></g>
<g><path style="opacity:1" fill="#d5e4ec" d="M 359.5,387.5 C 360.833,387.5 362.167,387.5 363.5,387.5C 363.5,397.167 363.5,406.833 363.5,416.5C 361.549,416.773 360.049,416.107 359,414.5C 346.91,418.754 341.576,414.421 343,401.5C 347.287,394.976 352.62,393.976 359,398.5C 359.499,394.848 359.665,391.182 359.5,387.5 Z"/></g>
<g><path style="opacity:1" fill="#1e426e" d="M 358.5,401.5 C 359.734,404.465 359.734,407.465 358.5,410.5C 351.774,415.471 347.774,413.805 346.5,405.5C 346.882,399.845 349.882,398.011 355.5,400C 356.527,400.513 357.527,401.013 358.5,401.5 Z"/></g>
<g><path style="opacity:1" fill="#073b7d" d="M 349.5,400.5 C 351.989,400.298 354.323,400.798 356.5,402C 357.337,403.011 357.67,404.178 357.5,405.5C 356.127,405.343 354.793,405.51 353.5,406C 356.516,409.295 355.849,410.962 351.5,411C 350.351,409.396 350.351,407.73 351.5,406C 348.955,404.685 348.288,402.852 349.5,400.5 Z"/></g>
<g><path style="opacity:1" fill="#f0f7f8" d="M 358.5,410.5 C 359.734,407.465 359.734,404.465 358.5,401.5C 358.783,400.711 359.283,400.044 360,399.5C 360.175,395.789 360.675,392.122 361.5,388.5C 362.833,397.5 362.833,406.5 361.5,415.5C 360.048,414.06 359.048,412.394 358.5,410.5 Z"/></g>
<g><path style="opacity:1" fill="#869ba9" d="M 172.5,415.5 C 170.902,417.857 169.902,420.523 169.5,423.5C 169.5,420.5 169.5,417.5 169.5,414.5C 170.791,414.263 171.791,414.596 172.5,415.5 Z"/></g>
<g><path style="opacity:1" fill="#39566d" d="M 333.5,415.5 C 334.209,416.404 335.209,416.737 336.5,416.5C 332.167,417.833 327.833,417.833 323.5,416.5C 326.883,416.743 330.049,416.076 333,414.5C 333.399,414.728 333.565,415.062 333.5,415.5 Z"/></g>
<g><path style="opacity:1" fill="#2e4f72" d="M 166.5,396.5 C 166.5,405.5 166.5,414.5 166.5,423.5C 167.5,423.5 168.5,423.5 169.5,423.5C 169.902,420.523 170.902,417.857 172.5,415.5C 174.607,416.468 176.941,416.802 179.5,416.5C 177.365,418.369 174.698,419.036 171.5,418.5C 171.808,420.924 171.474,423.257 170.5,425.5C 168.591,424.652 166.591,424.318 164.5,424.5C 163.861,414.773 164.528,405.44 166.5,396.5 Z"/></g>
<g><path style="opacity:1" fill="#1a416f" d="M 196.5,394.5 C 194.517,394.157 193.183,394.824 192.5,396.5C 192.5,403.167 192.5,409.833 192.5,416.5C 193.833,416.5 195.167,416.5 196.5,416.5C 196.5,412.167 196.5,407.833 196.5,403.5C 197.167,402.167 198.167,401.167 199.5,400.5C 198.895,406.701 198.228,412.867 197.5,419C 195.711,419.52 194.044,419.187 192.5,418C 191.253,416.054 189.92,414.22 188.5,412.5C 187.378,413.63 186.044,414.297 184.5,414.5C 187.324,410.64 188.158,406.307 187,401.5C 185.807,399.503 184.307,397.836 182.5,396.5C 185.655,396.984 187.988,398.651 189.5,401.5C 190.259,398.843 190.926,396.177 191.5,393.5C 193.666,390.977 195.333,391.31 196.5,394.5 Z"/></g>
<g><path style="opacity:1" fill="#1a426f" d="M 376.5,395.5 C 374.811,396.304 373.145,397.304 371.5,398.5C 366.879,405.327 367.879,411.16 374.5,416C 379.091,416.942 383.424,416.442 387.5,414.5C 386.884,416.417 385.55,417.584 383.5,418C 380.574,418.218 377.74,418.718 375,419.5C 374.612,418.572 373.945,417.905 373,417.5C 371.56,418.148 370.06,418.481 368.5,418.5C 367.62,411.851 367.454,405.184 368,398.5C 369.067,397.809 370.234,397.309 371.5,397C 371.167,396.667 370.833,396.333 370.5,396C 372.473,395.505 374.473,395.338 376.5,395.5 Z"/></g>
</svg>
